<?xml version="1.0" encoding="UTF-8" standalone="no"?>
<svg
   version="1.1"
   width="408"
   height="179"
   viewBox="0 0 408 179"
   id="svg33"
   sodipodi:docname="ScratchRouletteLogo.svg"
   inkscape:version="1.3 (0e150ed6c4, 2023-07-21)"
   xml:space="preserve"
   xmlns:inkscape="http://www.inkscape.org/namespaces/inkscape"
   xmlns:sodipodi="http://sodipodi.sourceforge.net/DTD/sodipodi-0.dtd"
   xmlns="http://www.w3.org/2000/svg"
   xmlns:svg="http://www.w3.org/2000/svg"><defs
     id="defs33" /><sodipodi:namedview
     id="namedview33"
     pagecolor="#505050"
     bordercolor="#ffffff"
     borderopacity="1"
     inkscape:showpageshadow="0"
     inkscape:pageopacity="0"
     inkscape:pagecheckerboard="1"
     inkscape:deskcolor="#505050"
     inkscape:zoom="1.4619458"
     inkscape:cx="185.36939"
     inkscape:cy="149.80036"
     inkscape:window-width="1920"
     inkscape:window-height="1027"
     inkscape:window-x="1912"
     inkscape:window-y="-8"
     inkscape:window-maximized="1"
     inkscape:current-layer="svg33" /><g
     transform="matrix(0.70542557,0,0,0.70542557,-92.958887,-39.344733)"
     id="g33"><g
       data-paper-data="{&quot;isPaintingLayer&quot;:true}"
       stroke-linecap="butt"
       stroke-linejoin="miter"
       stroke-miterlimit="10"
       stroke-dasharray="none"
       stroke-dashoffset="0"
       style="mix-blend-mode:normal"
       id="g32"><g
         fill-rule="nonzero"
         stroke="#ffffff"
         stroke-width="40"
         id="g14"><path
           d="m 233.82221,184.60935 c 0,0 -3.28617,-7.64778 1.72873,-14.59511 3.66624,-5.07897 8.42764,-5.50105 8.42764,-5.50105 0,0 81.6975,-7.12249 90.97545,6.25052 11.19221,17.9808 -40.6579,83.70134 -40.6579,83.70134 0,0 -4.11511,1.98768 -7.06758,1.88044 -2.88961,-0.10495 -10.46269,-2.51717 -10.46269,-2.51717 z"
           fill="#c1c1c1"
           id="path1" /><path
           d="m 227.38388,224.25913 c 0.17015,-8.45208 2.55496,-29.06204 4.9168,-43.60719 1.13389,-6.98295 6.66253,-10.53629 13.42999,-8.6651 13.80002,3.81568 36.03532,9.9637 43.72409,12.08963 5.17787,1.43167 10.23588,9.52466 9.35257,14.96443 -1.31897,8.12274 -5.14724,31.69874 -7.49829,46.17749 -1.13351,6.98061 -8.02199,10.1604 -13.19986,8.72873 -7.81835,-2.16176 -28.10154,-9.53838 -41.56359,-15.02896 -6.22653,-2.53953 -9.27426,-9.06791 -9.1617,-14.65904 z"
           fill="#e4e4e4"
           id="path2" /><path
           d="m 291.26977,245.46017 c 1.32079,-8.13394 5.17571,-31.87411 7.53755,-46.41926 1.13389,-6.98295 4.81857,-13.24753 8.95272,-15.24819 8.43025,-4.07969 19.12878,-9.17711 23.82575,-11.45013 3.16309,-1.53073 5.84815,3.07324 4.96484,8.51301 -1.31897,8.12274 -3.44699,28.63215 -5.79805,43.1109 -1.13351,6.98061 -5.64904,13.64943 -8.81214,15.18016 -4.77613,2.31133 -17.4155,10.59177 -25.80717,14.65278 -3.90795,1.89119 -5.74683,-2.8995 -4.86352,-8.33927 z"
           fill="#d6d6d6"
           id="path3" /><path
           d="m 241.03322,165.6111 c 4.77242,-2.23889 18.5052,-7.56463 27.03927,-11.56823 4.0971,-1.92208 11.68963,-1.95052 18.45708,-0.0793 13.80002,3.81568 33.34689,10.23084 41.03566,12.35677 5.17787,1.43167 7.51714,4.88135 4.32547,6.37867 -4.76585,2.23581 -15.71387,7.24921 -24.20899,11.23453 -4.09573,1.92144 -13.04909,1.57463 -18.22696,0.14296 -7.81835,-2.16176 -30.44749,-8.41867 -44.18434,-12.21689 -6.39718,-1.76881 -7.42887,-4.75117 -4.2372,-6.24849 z"
           fill="#f9f9f9"
           id="path4" /><path
           d="m 236.76876,186.89769 c 0.28412,-4.33955 3.77709,-6.95533 7.80179,-5.84251 4.02469,1.11282 7.05703,5.53284 6.77291,9.87238 -0.28412,4.33955 -3.77709,6.95533 -7.80179,5.84251 -4.02469,-1.11282 -7.05703,-5.53284 -6.77291,-9.87238 z"
           fill="#000000"
           id="path5" /><path
           d="m 251.13672,210.99042 c 0.3228,-4.93039 4.29136,-7.90232 8.86402,-6.63798 4.57267,1.26433 8.01786,6.28615 7.69506,11.21654 -0.3228,4.93039 -4.29136,7.90232 -8.86402,6.63798 -4.57267,-1.26433 -8.01786,-6.28615 -7.69506,-11.21654 z"
           fill="#000000"
           id="path6" /><path
           d="m 265.66137,236.07524 c 0.34065,-5.20309 4.52871,-8.33939 9.35428,-7.00512 4.82558,1.33426 8.46133,6.63383 8.12067,11.83692 -0.34065,5.20309 -4.52871,8.33939 -9.35428,7.00512 -4.82558,-1.33426 -8.46133,-6.63383 -8.12067,-11.83692 z"
           fill="#000000"
           id="path7" /><path
           d="m 294.24525,169.8648 c -3.04403,2.05257 -8.9917,2.75429 -13.28449,1.56734 -4.29279,-1.18695 -5.3051,-3.81309 -2.26107,-5.86566 3.04403,-2.05257 8.9917,-2.75429 13.28449,-1.56734 4.29279,1.18695 5.3051,3.81309 2.26107,5.86566 z"
           fill="#000000"
           id="path8" /><path
           d="m 302.5477,204.09159 c 0.74574,-4.59255 3.83118,-9.83569 6.89152,-11.71088 3.06034,-1.87519 4.9367,0.32767 4.19096,4.92022 -0.74574,4.59255 -3.83118,9.83569 -6.89152,11.71088 -3.06034,1.87519 -4.9367,-0.32767 -4.19096,-4.92022 z"
           fill="#000000"
           id="path9" /><path
           d="m 323.6865,191.13904 c 0.74574,-4.59255 3.83118,-9.83569 6.89152,-11.71088 3.06034,-1.87519 4.9367,0.32767 4.19096,4.92022 -0.74574,4.59255 -3.83118,9.83569 -6.89152,11.71088 -3.06034,1.87519 -4.9367,-0.32767 -4.19096,-4.92022 z"
           fill="#000000"
           id="path10" /><path
           d="m 299.49708,222.87857 c 0.74574,-4.59255 3.83118,-9.83569 6.89152,-11.71088 3.06034,-1.87519 4.9367,0.32767 4.19096,4.92022 -0.74574,4.59255 -3.83118,9.83569 -6.89152,11.71088 -3.06034,1.87519 -4.9367,-0.32767 -4.19096,-4.92022 z"
           fill="#000000"
           id="path11" /><path
           d="m 320.63588,209.92603 c 0.74574,-4.59255 3.83118,-9.83569 6.89152,-11.71088 3.06034,-1.87519 4.9367,0.32767 4.19096,4.92022 -0.74574,4.59255 -3.83118,9.83569 -6.89152,11.71088 -3.06034,1.87519 -4.9367,-0.32767 -4.19096,-4.92022 z"
           fill="#000000"
           id="path12" /><path
           d="m 296.27141,242.7435 c 0.74574,-4.59255 3.83118,-9.83569 6.89152,-11.71088 3.06034,-1.87519 4.9367,0.32767 4.19096,4.92022 -0.74574,4.59255 -3.83118,9.83569 -6.89152,11.71088 -3.06034,1.87519 -4.9367,-0.32767 -4.19096,-4.92022 z"
           fill="#000000"
           id="path13" /><path
           d="m 317.41021,229.79096 c 0.74574,-4.59255 3.83118,-9.83569 6.89152,-11.71088 3.06034,-1.87519 4.9367,0.32767 4.19096,4.92022 -0.74574,4.59255 -3.83118,9.83569 -6.89152,11.71088 -3.06034,1.87519 -4.9367,-0.32767 -4.19096,-4.92022 z"
           fill="#000000"
           id="path14" /></g><g
         fill-rule="evenodd"
         stroke="none"
         stroke-width="1"
         id="g17"><path
           d="m 273.05115,187.5067 c 3.53176,18.4698 -1.26947,37.7155 -13.1638,52.7592 -9.44673,12.08128 -22.60272,20.40417 -37.2592,23.60693 -5.82799,6.77555 -13.50862,11.55842 -22.26154,13.72572 -0.93414,0.23394 -1.87274,0.44297 -2.81847,0.61214 -22.62544,4.04722 -44.94543,-10.88694 -50.86725,-33.99383 -0.0673,-0.26561 -0.15427,-0.64083 -0.25992,-1.12068 -0.0534,-0.16012 -0.10291,-0.32609 -0.13589,-0.51043 -2.20541,-9.781 -3.44174,-17.96659 -4.08628,-23.20385 -0.59635,-4.82939 -1.97229,-13.46305 -2.31136,-15.46938 l -0.0223,-0.12456 c -1.13217,-7.02162 -0.68341,-14.15122 1.26007,-20.81806 -2.08956,-6.69611 -3.38136,-14.02853 -3.83001,-21.88198 l -0.0939,-1.21723 c -0.002,-0.14878 -0.0321,-0.31818 -0.0436,-0.46524 0.002,-0.12885 -0.005,-0.27677 -0.0116,-0.42469 -0.40689,-6.67832 -0.99415,-17.63315 2.67664,-29.62731 6.08469,-20.10257 21.91462,-34.2769 42.32217,-37.92738 l 0.86412,-0.15457 c 5.75841,-4.8658 12.62867,-8.14115 20.05526,-9.46962 l 0.78731,-0.14083 c 23.70721,-3.78825 46.55363,13.03645 50.93315,37.51956 0.0481,0.26905 4.49544,29.78407 5.38573,39.9957 6.48003,8.00344 10.85916,17.61156 12.88058,28.33041"
           fill="#ffffff"
           id="path15" /><path
           d="m 252.98665,191.21106 c 2.35654,12.23228 -0.93259,25.19681 -9.04862,35.46668 -6.87801,8.79897 -16.61884,14.72164 -27.38669,16.64778 -1.85662,0.31154 -3.74758,0.54182 -5.62688,0.61576 -0.31729,0.66348 -0.65824,1.30549 -1.02196,1.931 -3.27702,5.60967 -8.47857,9.51718 -14.65257,11.00721 -0.47293,0.12573 -0.93504,0.22896 -1.4151,0.31483 -12.17924,2.17861 -24.1947,-5.88871 -27.35862,-18.34164 -0.0638,-0.24568 -0.12842,-0.49634 -0.17655,-0.76539 l -0.0531,-0.18589 c -2.01015,-8.91098 -3.13111,-16.34081 -3.71725,-21.00235 -0.65385,-5.40012 -2.11624,-14.51707 -2.44818,-16.48354 -0.99808,-6.16123 0.27534,-12.14263 3.20291,-17.04707 -3.01027,-6.24862 -5.00856,-14.04082 -5.55057,-23.57949 l -0.0993,-1.38593 c 4.9e-4,-0.10806 -0.0182,-0.21269 -0.0177,-0.32076 -0.33529,-5.58565 -0.81683,-13.84456 1.7662,-22.28145 3.84173,-12.6726 13.51793,-21.28311 26.52288,-23.60943 0.7249,-0.12967 1.49176,-0.24628 2.28709,-0.34227 1.38333,-0.16004 2.80013,-0.2438 4.19457,-0.23101 3.51782,-4.70666 8.69698,-8.1577 14.87938,-9.12992 12.76271,-2.04646 25.05812,7.00428 27.41275,20.16755 0.0517,0.28897 5.21296,35.65098 5.21593,38.7972 0.0188,1.96078 -0.19925,3.87138 -0.59837,5.71153 7.11253,5.97243 11.83725,14.16131 13.68974,24.04657"
           fill="#f9a83a"
           id="path16" /><path
           d="m 197.71376,175.20526 c 10.83618,-0.15933 33.41929,-0.53805 37.2169,19.61182 1.29581,6.74555 -0.66307,13.99102 -5.29511,19.86364 -5.16838,6.58557 -12.79662,10.38729 -20.91477,10.42548 -6.22513,0.0132 -11.73934,-1.56614 -16.05626,-3.43164 1.01894,5.89013 2.04018,10.10364 2.04909,10.15346 0.74171,2.98322 -0.99957,5.98897 -3.87064,6.66708 -2.87354,0.71969 -5.77628,-1.10571 -6.53151,-4.08137 -0.0686,-0.38364 -2.18323,-9.07541 -3.49719,-19.55061 -0.77311,-6.50998 -2.55697,-17.23019 -2.5748,-17.32984 -0.48728,-3.02873 1.47634,-5.89943 4.41241,-6.35265 2.89286,-0.44549 5.67105,1.59757 6.15922,4.63128 0.0169,0.0947 0.16453,0.94749 0.37046,2.23723 0.72938,2.83117 2.23472,7.2306 4.75172,9.75228 2.98681,2.98781 8.19595,5.10506 10.2463,5.84891 1.40128,0.21724 2.85392,0.3893 4.36481,0.3607 4.87782,-0.0396 9.63281,-2.42753 12.79425,-6.4123 2.61831,-3.33745 3.75801,-7.26908 3.0751,-10.78213 -1.70667,-9.04239 -11.7835,-10.7311 -26.38294,-10.50533 -13.43173,0.21742 -20.94178,-9.69446 -21.88847,-27.36695 l -0.11875,-1.57784 c -0.51846,-8.93615 -1.49621,-24.42813 14.57088,-26.39211 6.00826,-0.69941 12.06819,2.54594 17.0537,6.48738 -0.75422,-4.77031 -1.58292,-9.48615 -1.59451,-9.55092 -0.53652,-2.99935 1.38602,-5.87813 4.29788,-6.38358 2.92771,-0.47229 5.68792,1.55342 6.22623,4.56274 0.0998,0.55802 4.91606,34.93284 4.91213,35.2986 0.031,3.05379 -2.37163,5.5197 -5.32516,5.48757 -2.28741,0.008 -4.20989,-1.48874 -5.03052,-3.58374 l 0.003,0.0149 -0.88936,-3.1162 c -0.67378,-2.54804 -1.60831,-4.86433 -3.73202,-8.28933 -2.93864,-4.65721 -7.01677,-6.54487 -8.99924,-8.21095 -2.0253,-1.18538 -3.96627,-1.87167 -5.5107,-1.69823 -5.27568,0.64034 -5.95555,3.34825 -5.28465,14.85371 l 0.0926,1.59794 c 0.72037,13.24995 4.69113,16.86386 10.90023,16.76097"
           fill="#ffffff"
           id="path17" /></g><g
         fill-rule="nonzero"
         stroke="none"
         stroke-width="0"
         id="g31"><path
           d="m 233.82221,184.60935 c 0,0 -3.28617,-7.64778 1.72873,-14.59511 3.66624,-5.07897 8.42764,-5.50105 8.42764,-5.50105 0,0 81.6975,-7.12249 90.97545,6.25052 11.19221,17.9808 -40.6579,83.70134 -40.6579,83.70134 0,0 -4.11511,1.98768 -7.06758,1.88044 -2.88961,-0.10495 -10.46269,-2.51717 -10.46269,-2.51717 z"
           fill="#c1c1c1"
           id="path18" /><path
           d="m 227.38388,224.25913 c 0.17015,-8.45208 2.55496,-29.06204 4.9168,-43.60719 1.13389,-6.98295 6.66253,-10.53629 13.42999,-8.6651 13.80002,3.81568 36.03532,9.9637 43.72409,12.08963 5.17787,1.43167 10.23588,9.52466 9.35257,14.96443 -1.31897,8.12274 -5.14724,31.69874 -7.49829,46.17749 -1.13351,6.98061 -8.02199,10.1604 -13.19986,8.72873 -7.81835,-2.16176 -28.10154,-9.53838 -41.56359,-15.02896 -6.22653,-2.53953 -9.27426,-9.06791 -9.1617,-14.65904 z"
           fill="#e4e4e4"
           id="path19" /><path
           d="m 291.26977,245.46017 c 1.32079,-8.13394 5.17571,-31.87411 7.53755,-46.41926 1.13389,-6.98295 4.81857,-13.24753 8.95272,-15.24819 8.43025,-4.07969 19.12878,-9.17711 23.82575,-11.45013 3.16309,-1.53073 5.84815,3.07324 4.96484,8.51301 -1.31897,8.12274 -3.44699,28.63215 -5.79805,43.1109 -1.13351,6.98061 -5.64904,13.64943 -8.81214,15.18016 -4.77613,2.31133 -17.4155,10.59177 -25.80717,14.65278 -3.90795,1.89119 -5.74683,-2.8995 -4.86352,-8.33927 z"
           fill="#d6d6d6"
           id="path20" /><path
           d="m 241.03322,165.6111 c 4.77242,-2.23889 18.5052,-7.56463 27.03927,-11.56823 4.0971,-1.92208 11.68963,-1.95052 18.45708,-0.0793 13.80002,3.81568 33.34689,10.23084 41.03566,12.35677 5.17787,1.43167 7.51714,4.88135 4.32547,6.37867 -4.76585,2.23581 -15.71387,7.24921 -24.20899,11.23453 -4.09573,1.92144 -13.04909,1.57463 -18.22696,0.14296 -7.81835,-2.16176 -30.44749,-8.41867 -44.18434,-12.21689 -6.39718,-1.76881 -7.42887,-4.75117 -4.2372,-6.24849 z"
           fill="#f9f9f9"
           id="path21" /><path
           d="m 236.76876,186.89769 c 0.28412,-4.33955 3.77709,-6.95533 7.80179,-5.84251 4.02469,1.11282 7.05703,5.53284 6.77291,9.87238 -0.28412,4.33955 -3.77709,6.95533 -7.80179,5.84251 -4.02469,-1.11282 -7.05703,-5.53284 -6.77291,-9.87238 z"
           fill="#000000"
           id="path22" /><path
           d="m 251.13672,210.99042 c 0.3228,-4.93039 4.29136,-7.90232 8.86402,-6.63798 4.57267,1.26433 8.01786,6.28615 7.69506,11.21654 -0.3228,4.93039 -4.29136,7.90232 -8.86402,6.63798 -4.57267,-1.26433 -8.01786,-6.28615 -7.69506,-11.21654 z"
           fill="#000000"
           id="path23" /><path
           d="m 265.66137,236.07524 c 0.34065,-5.20309 4.52871,-8.33939 9.35428,-7.00512 4.82558,1.33426 8.46133,6.63383 8.12067,11.83692 -0.34065,5.20309 -4.52871,8.33939 -9.35428,7.00512 -4.82558,-1.33426 -8.46133,-6.63383 -8.12067,-11.83692 z"
           fill="#000000"
           id="path24" /><path
           d="m 294.24525,169.8648 c -3.04403,2.05257 -8.9917,2.75429 -13.28449,1.56734 -4.29279,-1.18695 -5.3051,-3.81309 -2.26107,-5.86566 3.04403,-2.05257 8.9917,-2.75429 13.28449,-1.56734 4.29279,1.18695 5.3051,3.81309 2.26107,5.86566 z"
           fill="#000000"
           id="path25" /><path
           d="m 302.5477,204.09159 c 0.74574,-4.59255 3.83118,-9.83569 6.89152,-11.71088 3.06034,-1.87519 4.9367,0.32767 4.19096,4.92022 -0.74574,4.59255 -3.83118,9.83569 -6.89152,11.71088 -3.06034,1.87519 -4.9367,-0.32767 -4.19096,-4.92022 z"
           fill="#000000"
           id="path26" /><path
           d="m 323.6865,191.13904 c 0.74574,-4.59255 3.83118,-9.83569 6.89152,-11.71088 3.06034,-1.87519 4.9367,0.32767 4.19096,4.92022 -0.74574,4.59255 -3.83118,9.83569 -6.89152,11.71088 -3.06034,1.87519 -4.9367,-0.32767 -4.19096,-4.92022 z"
           fill="#000000"
           id="path27" /><path
           d="m 299.49708,222.87857 c 0.74574,-4.59255 3.83118,-9.83569 6.89152,-11.71088 3.06034,-1.87519 4.9367,0.32767 4.19096,4.92022 -0.74574,4.59255 -3.83118,9.83569 -6.89152,11.71088 -3.06034,1.87519 -4.9367,-0.32767 -4.19096,-4.92022 z"
           fill="#000000"
           id="path28" /><path
           d="m 320.63588,209.92603 c 0.74574,-4.59255 3.83118,-9.83569 6.89152,-11.71088 3.06034,-1.87519 4.9367,0.32767 4.19096,4.92022 -0.74574,4.59255 -3.83118,9.83569 -6.89152,11.71088 -3.06034,1.87519 -4.9367,-0.32767 -4.19096,-4.92022 z"
           fill="#000000"
           id="path29" /><path
           d="m 296.27141,242.7435 c 0.74574,-4.59255 3.83118,-9.83569 6.89152,-11.71088 3.06034,-1.87519 4.9367,0.32767 4.19096,4.92022 -0.74574,4.59255 -3.83118,9.83569 -6.89152,11.71088 -3.06034,1.87519 -4.9367,-0.32767 -4.19096,-4.92022 z"
           fill="#000000"
           id="path30" /><path
           d="m 317.41021,229.79096 c 0.74574,-4.59255 3.83118,-9.83569 6.89152,-11.71088 3.06034,-1.87519 4.9367,0.32767 4.19096,4.92022 -0.74574,4.59255 -3.83118,9.83569 -6.89152,11.71088 -3.06034,1.87519 -4.9367,-0.32767 -4.19096,-4.92022 z"
           fill="#000000"
           id="path31" /></g></g></g><text
     xml:space="preserve"
     style="font-size:51.7336px;line-height:1.25;font-family:Arial;-inkscape-font-specification:Arial;stroke-width:1.29333"
     x="283.57864"
     y="74.781303"
     id="text1"><tspan
       sodipodi:role="line"
       x="283.57864"
       y="74.781303"
       style="font-style:normal;font-variant:normal;font-weight:900;font-stretch:normal;font-family:Arial;-inkscape-font-specification:'Arial Heavy';text-align:center;text-anchor:middle;stroke-width:1.29333"
       id="tspan2">Scratch</tspan><tspan
       sodipodi:role="line"
       x="283.57864"
       y="139.66432"
       style="font-style:normal;font-variant:normal;font-weight:900;font-stretch:normal;font-family:Arial;-inkscape-font-specification:'Arial Heavy';text-align:center;text-anchor:middle;stroke-width:1.29333"
       id="tspan3">Roulette</tspan></text></svg>
